<svg xmlns="http://www.w3.org/2000/svg" viewBox="0 0 250.81 282.17"><defs><style>.cls-1{fill:none;stroke:#fefefe;stroke-linecap:round;stroke-linejoin:round;stroke-width:4px;}.cls-2{fill:#fff;}</style></defs><title>clock</title><g id="Layer_2" data-name="Layer 2"><g id="Layer_1-2" data-name="Layer 1"><path id="_Compound_Path_" data-name="&lt;Compound Path&gt;" class="cls-1" d="M217.33,280.17H31.14c0-2.44,0-4.89.1-7.32.1-1.67-.48-2.14-2.14-2.14a131.23,131.23,0,0,1-15.3-.41c-8.1-1-12.86-5.8-11.61-14.59A143.46,143.46,0,0,1,6,239.1c6-22.41,12.07-44.8,18.1-67.2s12-44.67,18-67c1.71-6.32,4.54-12,10-16A27.22,27.22,0,0,1,68.4,83.8c13.18-.17,26.35-.09,39.53-.11h2.63V68.53c-.69-.1-1.26-.19-1.84-.25-5.43-.62-10.9-1-16.29-1.89C72.76,63.27,54.73,56.19,39,43.78a95,95,0,0,1-25.6-30.21C11.4,9.89,10.09,5.87,8.48,2H237.33c-20.19,42.12-55.81,60.92-100.47,66.34,0,4.35.1,8.64,0,12.91-.07,2,.56,2.5,2.51,2.49q19.43-.12,38.87,0a61.59,61.59,0,0,1,10.15.84A23,23,0,0,1,204.88,96c3.24,5.51,4.43,11.71,6.07,17.75q7.4,27.27,14.68,54.58t14.69,54.81C243,233.1,245.7,243,248.16,253s-2.23,16.64-12.5,17.44c-5,.39-10.06.25-15.09.34-1,0-2,0-3.24,0ZM203.08,177.08a77.69,77.69,0,1,0-77.59,77.74C168.29,254.88,203.14,219.77,203.08,177.08Z"/><path id="_Compound_Path_2" data-name="&lt;Compound Path&gt;" class="cls-2" d="M104.56,218.28l-2.93-1.66c2.59-5,5.09-9.84,7.61-14.66,3-5.7,5.93-11.4,9-17.06.66-1.22.37-1.92-.52-2.87A12,12,0,0,1,116,167.51a12.52,12.52,0,0,1,13.34-5.77A12.15,12.15,0,0,1,139,173.53c0,7.94-6.09,13-12.85,12.43a2.68,2.68,0,0,0-3,1.53c-5.74,9.73-11.55,19.42-17.34,29.12C105.44,217.16,105,217.65,104.56,218.28Zm22.11-47.91a3.34,3.34,0,0,0-3.55,3.39,3.65,3.65,0,0,0,3.47,3.61,3.8,3.8,0,0,0,3.6-3.53A3.42,3.42,0,0,0,126.67,170.38Z"/><path id="_Path_" data-name="&lt;Path&gt;" class="cls-2" d="M179.94,218.37l-9.85-7,2.32-3.19,9.84,6.93Z"/><path id="_Path_2" data-name="&lt;Path&gt;" class="cls-2" d="M149.14,228.24l3.44-2L158,237l-3.54,1.93Z"/><path id="_Path_3" data-name="&lt;Path&gt;" class="cls-2" d="M193.42,176v3.77H181.64l.17-3.77Z"/><path id="_Path_4" data-name="&lt;Path&gt;" class="cls-2" d="M184.29,144l2,3.39-10.06,5.52-2.13-3.38Z"/><path id="_Path_5" data-name="&lt;Path&gt;" class="cls-2" d="M124.56,245.1V233.62l3.78-.21c0,3.63.24,7.09-.09,10.49C128,246.11,126,244.55,124.56,245.1Z"/><path id="_Path_6" data-name="&lt;Path&gt;" class="cls-2" d="M93.5,236.44l-3.39-2.12L95.66,225l3.53,1.83Z"/><path id="_Path_7" data-name="&lt;Path&gt;" class="cls-2" d="M157.17,130.51l-3.52-1.89,5.59-9.33,3.38,2.08Z"/><path id="_Path_8" data-name="&lt;Path&gt;" class="cls-2" d="M75.67,203.36l1.77,3.43-8.81,4.79c-.14-.08-.23-.09-.27-.15-2.27-3.11-2.27-3.1,1.07-4.82,1-.54,2-1.2,3.06-1.74S74.45,203.93,75.67,203.36Z"/><path id="_Path_9" data-name="&lt;Path&gt;" class="cls-2" d="M124.56,110.9h3.64V121l-3.64-.37Z"/><path id="_Path_10" data-name="&lt;Path&gt;" class="cls-2" d="M98.3,116.76l4.37,8.83-3.58,1.79-4.29-8.65Z"/><path id="_Path_11" data-name="&lt;Path&gt;" class="cls-2" d="M59.2,175.93h9.65l.28,3.94c-3.05,0-6,0-8.9,0-.35,0-.91-.66-1-1.09A16.37,16.37,0,0,1,59.2,175.93Z"/><path id="_Path_12" data-name="&lt;Path&gt;" class="cls-2" d="M80.66,143l-2.35,3.19-7.74-5.46,2.13-3.37Z"/><path id="_Path_13" data-name="&lt;Path&gt;" class="cls-2" d="M126.67,170.38a3.42,3.42,0,0,1,3.51,3.47,3.8,3.8,0,0,1-3.6,3.53,3.65,3.65,0,0,1-3.47-3.61A3.34,3.34,0,0,1,126.67,170.38Z"/></g></g></svg>